<?xml version="1.0" encoding="UTF-8"?>
<svg width="85px" height="85px" viewBox="0 0 85 85" version="1.1" xmlns="http://www.w3.org/2000/svg" xmlns:xlink="http://www.w3.org/1999/xlink">
    <!-- Generator: Sketch 51 (57462) - http://www.bohemiancoding.com/sketch -->
    <title>Group 41</title>
    <desc>Created with Sketch.</desc>
    <defs>
        <polygon id="path-1" points="0 0.0514453567 8.32413457 0.0514453567 8.32413457 12.6992432 0 12.6992432"/>
        <polygon id="path-3" points="0.0450660298 0.689697668 12.841626 0.689697668 12.841626 9 0.0450660298 9"/>
    </defs>
    <g id="Symbols" stroke="none" stroke-width="1" fill="none" fill-rule="evenodd">
        <g id="Logo" transform="translate(-3.000000, -4.000000)">
            <g id="Group-41" transform="translate(3.000000, 4.000000)">
                <path d="M58.4522879,58.3579647 C48.8772321,68.1397489 32.5794357,66.9461907 24.4368505,55.9063632 C16.3528038,44.9462627 19.6940873,28.7112913 31.3857102,21.9649906 C36.9020994,18.7817778 43.6259877,18.126376 49.6359364,20.1699634 C52.7350315,21.2239996 55.5896423,22.9744735 57.9656152,25.2619314 C60.4116046,27.6173916 60.8156348,31.5591822 57.954137,33.8290532 C56.7397509,34.7939829 55.1328128,35.1691682 53.6280299,34.8443985 C51.9028671,34.4727305 50.9444432,33.1806861 49.5934674,32.1676858 C47.0281054,30.2413438 43.7648731,29.4370403 40.6198656,29.9388507 C34.0956967,30.977645 29.5480617,37.4800752 30.6534056,44.1173376 C31.7610451,50.7639797 38.180763,55.3318607 44.6647585,54.111336 C46.2303754,53.8170501 47.7271235,53.2050291 49.0585865,52.3163089 C50.4313708,51.3982773 51.4345594,49.977263 53.0242803,49.4262096 C56.1520707,48.3416896 59.5759968,50.5517655 59.9639575,53.9026392 C60.1533467,55.5335228 59.5886227,57.1972351 58.4522879,58.3579647" id="Fill-1" fill="#4D56A5"/>
                <path d="M29.177,10 C29.121,10.031 29.062,10.057 29,10.073 L29.177,10 Z" id="Fill-3" fill="#416CB4"/>
                <path d="M29.359,10 C29.238,10.047 29.119,10.096 29,10.147 C29.114,10.086 29.234,10.037 29.359,10" id="Fill-5" fill="#416CB4"/>
                <path d="M29.177,10 C29.121,10.031 29.062,10.057 29,10.073 L29.177,10 Z" id="Fill-7" fill="#416CB4"/>
                <path d="M29.177,10 C29.121,10.031 29.062,10.057 29,10.073 L29.177,10 Z" id="Fill-9" fill="#416CB4"/>
                <path d="M29.359,10 C29.238,10.047 29.119,10.096 29,10.147 C29.114,10.086 29.234,10.037 29.359,10" id="Fill-11" fill="#416CB4"/>
                <path d="M29.177,10 C29.121,10.031 29.062,10.057 29,10.073 L29.177,10 Z" id="Fill-13" fill="#416CB4"/>
                <path d="M29.359,10 C29.238,10.047 29.119,10.096 29,10.147 C29.114,10.086 29.234,10.037 29.359,10" id="Fill-15" fill="#416CB4"/>
                <path d="M29.177,10 C29.121,10.031 29.062,10.057 29,10.073 L29.177,10 Z" id="Fill-17" fill="#416CB4"/>
                <path d="M64.064,71 C64.039,71.015 64.02,71.034 64,71.054" id="Fill-19" fill="#416CB4"/>
                <path d="M84.9999334,42.6109414 C84.9651299,48.2303849 83.8298163,53.8558065 81.6299961,59.0340638 C80.4226753,61.8772631 78.9249254,64.5865522 77.1391466,67.1105193 C76.4610788,68.0682159 75.7422068,68.9984132 74.9897315,69.8987198 C73.9900315,71.094346 72.885921,72.5972483 71.5609884,73.4437517 C69.049137,75.0506734 65.702002,72.9523493 66.0212339,70.0075218 C66.1808499,68.5201627 67.3149634,67.642573 68.270259,66.6071606 C69.3311652,65.4569682 70.3200642,64.238625 71.2237546,62.9616961 C74.3080633,58.6036384 76.363869,53.5760299 77.2615589,48.3224481 C77.5135841,46.8458496 77.6683996,45.3513168 77.732006,43.8543927 C77.7968125,42.3227955 77.7716099,40.8916308 79.0641393,39.8155672 C81.3839715,37.887022 85.0179352,39.6039413 84.9999334,42.6109414" id="Fill-21" fill="#FBC056"/>
                <path d="M46.9999009,3.70754261 C46.9915781,5.17465181 46.1010367,6.53792731 44.7788979,7.09618618 C43.3782868,7.68987067 41.5758026,7.37714798 40.0765067,7.50785629 C37.5237801,7.73262573 34.9853212,8.24446483 32.5407911,9.03237943 C27.9501635,10.5141475 23.6912595,12.9426347 20.0280314,16.1504855 C18.9092071,17.130187 17.9009574,18.5692 16.3980946,18.9136836 C15.0854676,19.2141906 13.6824786,18.7157888 12.8335513,17.6408045 C10.538832,14.738347 13.4958097,12.1815947 15.5230099,10.4115354 C19.6772842,6.78834978 24.5223522,3.98239654 29.6991439,2.23188239 C32.7096254,1.21431206 35.8247366,0.526566446 38.9802729,0.216286897 C41.8694792,-0.070782764 47.0260583,-0.754863659 46.9999009,3.70754261" id="Fill-23" fill="#FBC056"/>
                <path d="M16.9302714,72.932821 C15.9273032,73.9513769 14.4060949,74.2765265 13.0919432,73.7530849 C11.7035863,73.2000842 10.6766809,71.6851825 9.7371463,70.5582435 C8.0531651,68.5433011 5.62832793,65.727801 7.96818809,63.1672477 C9.00347148,62.0341506 10.6694998,61.6831368 12.0542661,62.303877 C13.2702753,62.8494879 13.9261542,64.1266854 14.7328375,65.1378515 C15.673569,66.3152873 17.1301469,67.4237519 17.716608,68.8376601 C18.2911005,70.2232409 17.9739328,71.8773164 16.9302714,72.932821" id="Fill-25" fill="#FBC056"/>
                <path d="M59.5352776,80.2684126 C58.2283305,82.5894199 54.7737579,82.5649392 53.4633225,80.2684126 C52.8714755,79.2273983 52.8424064,77.9380793 53.4005333,76.8760815 C53.9168006,75.8910232 54.7179452,75.5343038 55.6469938,75.07733 C55.2097945,75.2382034 56.188842,75.0108823 56.3062812,75.0050535 C56.6760402,74.9852358 57.0504503,75.0237055 57.4074189,75.1204627 C58.0783339,75.3011539 58.6829714,75.6835197 59.1399377,76.2069413 C60.1154969,77.3237293 60.2806095,78.9814252 59.5352776,80.2684126" id="Fill-27" fill="#FBC056"/>
                <path d="M59.7321625,7.89888006 C58.106879,11.7901065 52.1080633,9.82516017 53.1126996,5.68318926 C53.617338,3.60927455 55.9096721,2.43991473 57.8667408,3.26830891 C59.6231142,4.01234046 60.4722987,6.12843649 59.7321625,7.89888006" id="Fill-29" fill="#FBC056"/>
                <path d="M29.7046165,78.8579621 C28.8938051,80.7980537 26.5031296,81.5909303 24.7040332,80.5197284 C23.0592113,79.5409118 22.5082308,77.3435446 23.4802764,75.6876255 C25.6308404,72.0237876 31.3575581,74.8982573 29.7046165,78.8579621" id="Fill-31" fill="#FBC056"/>
                <path d="M76.8389727,21.4361019 C75.9983132,24.1872238 72.3937765,24.9104887 70.616656,22.6888559 C70.7100626,22.8270908 70.8022717,22.9653258 70.8968758,23.1035607 C70.3112883,22.2482321 69.6957628,21.4188225 69.0455091,20.6165663 C68.2180224,19.5970837 67.0372672,18.659061 66.4229392,17.4865326 C65.331998,15.4068375 66.4492846,12.7544548 68.6539199,12.1323976 C71.2812799,11.3906191 73.0152896,13.9269832 74.4942275,15.7314427 C75.7995248,17.3248471 77.5407197,19.1576941 76.8389727,21.4361019" id="Fill-33" fill="#FBC056"/>
                <g id="Group-37" transform="translate(0.000000, 33.000000)">
                    <mask id="mask-2" fill="white">
                        <use xlink:href="#path-1"/>
                    </mask>
                    <g id="Clip-36"/>
                    <path d="M8.29851429,3.91295 C8.13522857,5.11578333 7.95137143,6.33728333 7.87808571,7.55878333 C7.79322857,8.96111667 7.96937143,10.3552833 6.89322857,11.49745 C4.85665714,13.6592833 0.842657143,12.7551167 0.162514286,9.97845 C-0.203914286,8.47928333 0.139371429,6.68845 0.309085714,5.17061667 C0.454371429,3.86861667 0.482657143,2.38695 1.42765714,1.32528333 C3.7998,-1.33588333 8.72151429,0.484116667 8.29851429,3.91295" id="Fill-35" fill="#FBC056" mask="url(#mask-2)"/>
                </g>
                <g id="Group-40" transform="translate(33.000000, 76.000000)">
                    <mask id="mask-4" fill="white">
                        <use xlink:href="#path-3"/>
                    </mask>
                    <g id="Clip-39"/>
                    <path d="M12.8415625,5.08782857 C12.8333472,6.56897143 12.02825,7.9524 10.803,8.58111429 C9.44982639,9.2754 7.68471528,8.92568571 6.24586806,8.80482857 C3.59233333,8.57982857 -0.297013889,8.18382857 0.0691527778,4.17754286 C0.219375,2.54211429 1.33313194,1.1304 2.81188194,0.776828571 C3.88925694,0.520971429 5.09925,0.898971429 6.16723611,1.01211429 C7.64833333,1.16768571 9.47329861,0.8514 10.8417292,1.57397143 C12.0599375,2.21682857 12.8497778,3.60668571 12.8415625,5.08782857" id="Fill-38" fill="#FBC056" mask="url(#mask-4)"/>
                </g>
            </g>
        </g>
    </g>
</svg>